<svg width="52" height="52" viewBox="0 0 52 52" fill="none" xmlns="http://www.w3.org/2000/svg">
<circle cx="26" cy="26" r="21" fill="#7A3145"/>
<circle cx="26" cy="26" r="23.5" stroke="#7A3145" stroke-opacity="0.3" stroke-width="5"/>
<path d="M20.9082 33V31.1055L25.9668 26.1445C26.4421 25.6562 26.8392 25.2233 27.1582 24.8457C27.4837 24.4681 27.7279 24.1035 27.8906 23.752C28.0534 23.3939 28.1348 23.013 28.1348 22.6094C28.1348 22.1536 28.0306 21.7598 27.8223 21.4277C27.6139 21.0957 27.3275 20.8418 26.9629 20.666C26.6048 20.4902 26.1947 20.4023 25.7324 20.4023C25.2507 20.4023 24.8307 20.5 24.4727 20.6953C24.1146 20.8906 23.8346 21.1673 23.6328 21.5254C23.4375 21.8835 23.3398 22.3099 23.3398 22.8047H20.8398C20.8398 21.8867 21.0482 21.0892 21.4648 20.4121C21.888 19.7285 22.4707 19.1979 23.2129 18.8203C23.9551 18.4427 24.8047 18.2539 25.7617 18.2539C26.7448 18.2539 27.6042 18.4362 28.3398 18.8008C29.0755 19.1654 29.6484 19.6667 30.0586 20.3047C30.4688 20.9362 30.6738 21.6589 30.6738 22.4727C30.6738 23.0195 30.5697 23.5566 30.3613 24.084C30.153 24.6048 29.7852 25.1875 29.2578 25.832C28.737 26.4701 28.0046 27.2415 27.0605 28.1465L24.5605 30.6953V30.8027H30.8887V33H20.9082Z" fill="#FBFBFB"/>
</svg>
